<svg width="512" height="512" viewBox="0 0 32 32" xmlns="http://www.w3.org/2000/svg" shape-rendering="crispEdges">
  <!-- 배경 (투명) -->
  <rect width="32" height="32" fill="none" />
  
  <!-- 머리카락 (뒷머리) -->
  <rect x="8" y="5" width="16" height="24" fill="#1E1E1E" />
  
  <!-- 얼굴 -->
  <rect x="10" y="7" width="12" height="11" fill="#FFDBAC" />
  <!-- 눈 -->
  <rect x="13" y="12" width="1" height="1" fill="#1E1E1E" />
  <rect x="18" y="12" width="1" height="1" fill="#1E1E1E" />
  <!-- 볼터치 -->
  <rect x="11" y="14" width="1" height="1" fill="#FFB6C1" />
  <rect x="20" y="14" width="1" height="1" fill="#FFB6C1" />
  
  <!-- 머리카락 (앞머리/옆머리 보정) -->
  <rect x="9" y="6" width="14" height="2" fill="#1E1E1E" />
  <rect x="9" y="8" width="1" height="18" fill="#1E1E1E" />
  <rect x="22" y="8" width="1" height="18" fill="#1E1E1E" />

  <!-- 웨딩드레스 -->
  <!-- 몸통 -->
  <rect x="12" y="18" width="8" height="4" fill="#FFFFFF" />
  <!-- 치마 -->
  <rect x="11" y="22" width="10" height="1" fill="#FFFFFF" />
  <rect x="10" y="23" width="12" height="1" fill="#FFFFFF" />
  <rect x="9" y="24" width="14" height="1" fill="#FFFFFF" />
  <rect x="8" y="25" width="16" height="1" fill="#FFFFFF" />
  <rect x="7" y="26" width="18" height="1" fill="#FFFFFF" />
  <rect x="6" y="27" width="20" height="2" fill="#FFFFFF" />
  <!-- 드레스 하단 음영 -->
  <rect x="10" y="28" width="12" height="1" fill="#E6E6E6" />

  <!-- 팔 -->
  <rect x="9" y="19" width="3" height="3" fill="#FFDBAC" />
  <rect x="20" y="19" width="3" height="3" fill="#FFDBAC" />

  <!-- 부케 -->
  <rect x="14" y="20" width="4" height="4" fill="#FFB6C1" />
  <rect x="15" y="20" width="1" height="1" fill="#64C864" />
  <rect x="17" y="21" width="1" height="1" fill="#64C864" />
  <rect x="16" y="22" width="1" height="1" fill="#64C864" />
</svg>
